<svg xmlns="http://www.w3.org/2000/svg" width="324" height="324" viewBox="0 0 324 324" shape-rendering="crispEdges">
<rect width="324" height="324" fill="#ffffff"/>
<g fill="#1a1a2e"><rect x="12" y="12" width="12" height="12"/><rect x="24" y="12" width="12" height="12"/><rect x="36" y="12" width="12" height="12"/><rect x="48" y="12" width="12" height="12"/><rect x="60" y="12" width="12" height="12"/><rect x="72" y="12" width="12" height="12"/><rect x="84" y="12" width="12" height="12"/><rect x="108" y="12" width="12" height="12"/><rect x="132" y="12" width="12" height="12"/><rect x="156" y="12" width="12" height="12"/><rect x="168" y="12" width="12" height="12"/><rect x="192" y="12" width="12" height="12"/><rect x="228" y="12" width="12" height="12"/><rect x="240" y="12" width="12" height="12"/><rect x="252" y="12" width="12" height="12"/><rect x="264" y="12" width="12" height="12"/><rect x="276" y="12" width="12" height="12"/><rect x="288" y="12" width="12" height="12"/><rect x="300" y="12" width="12" height="12"/><rect x="12" y="24" width="12" height="12"/><rect x="84" y="24" width="12" height="12"/><rect x="144" y="24" width="12" height="12"/><rect x="180" y="24" width="12" height="12"/><rect x="228" y="24" width="12" height="12"/><rect x="300" y="24" width="12" height="12"/><rect x="12" y="36" width="12" height="12"/><rect x="36" y="36" width="12" height="12"/><rect x="48" y="36" width="12" height="12"/><rect x="60" y="36" width="12" height="12"/><rect x="84" y="36" width="12" height="12"/><rect x="144" y="36" width="12" height="12"/><rect x="156" y="36" width="12" height="12"/><rect x="180" y="36" width="12" height="12"/><rect x="204" y="36" width="12" height="12"/><rect x="228" y="36" width="12" height="12"/><rect x="252" y="36" width="12" height="12"/><rect x="264" y="36" width="12" height="12"/><rect x="276" y="36" width="12" height="12"/><rect x="300" y="36" width="12" height="12"/><rect x="12" y="48" width="12" height="12"/><rect x="36" y="48" width="12" height="12"/><rect x="48" y="48" width="12" height="12"/><rect x="60" y="48" width="12" height="12"/><rect x="84" y="48" width="12" height="12"/><rect x="108" y="48" width="12" height="12"/><rect x="120" y="48" width="12" height="12"/><rect x="132" y="48" width="12" height="12"/><rect x="156" y="48" width="12" height="12"/><rect x="168" y="48" width="12" height="12"/><rect x="204" y="48" width="12" height="12"/><rect x="228" y="48" width="12" height="12"/><rect x="252" y="48" width="12" height="12"/><rect x="264" y="48" width="12" height="12"/><rect x="276" y="48" width="12" height="12"/><rect x="300" y="48" width="12" height="12"/><rect x="12" y="60" width="12" height="12"/><rect x="36" y="60" width="12" height="12"/><rect x="48" y="60" width="12" height="12"/><rect x="60" y="60" width="12" height="12"/><rect x="84" y="60" width="12" height="12"/><rect x="132" y="60" width="12" height="12"/><rect x="156" y="60" width="12" height="12"/><rect x="192" y="60" width="12" height="12"/><rect x="228" y="60" width="12" height="12"/><rect x="252" y="60" width="12" height="12"/><rect x="264" y="60" width="12" height="12"/><rect x="276" y="60" width="12" height="12"/><rect x="300" y="60" width="12" height="12"/><rect x="12" y="72" width="12" height="12"/><rect x="84" y="72" width="12" height="12"/><rect x="108" y="72" width="12" height="12"/><rect x="156" y="72" width="12" height="12"/><rect x="180" y="72" width="12" height="12"/><rect x="192" y="72" width="12" height="12"/><rect x="204" y="72" width="12" height="12"/><rect x="228" y="72" width="12" height="12"/><rect x="300" y="72" width="12" height="12"/><rect x="12" y="84" width="12" height="12"/><rect x="24" y="84" width="12" height="12"/><rect x="36" y="84" width="12" height="12"/><rect x="48" y="84" width="12" height="12"/><rect x="60" y="84" width="12" height="12"/><rect x="72" y="84" width="12" height="12"/><rect x="84" y="84" width="12" height="12"/><rect x="108" y="84" width="12" height="12"/><rect x="132" y="84" width="12" height="12"/><rect x="156" y="84" width="12" height="12"/><rect x="180" y="84" width="12" height="12"/><rect x="204" y="84" width="12" height="12"/><rect x="228" y="84" width="12" height="12"/><rect x="240" y="84" width="12" height="12"/><rect x="252" y="84" width="12" height="12"/><rect x="264" y="84" width="12" height="12"/><rect x="276" y="84" width="12" height="12"/><rect x="288" y="84" width="12" height="12"/><rect x="300" y="84" width="12" height="12"/><rect x="108" y="96" width="12" height="12"/><rect x="120" y="96" width="12" height="12"/><rect x="144" y="96" width="12" height="12"/><rect x="192" y="96" width="12" height="12"/><rect x="12" y="108" width="12" height="12"/><rect x="36" y="108" width="12" height="12"/><rect x="48" y="108" width="12" height="12"/><rect x="60" y="108" width="12" height="12"/><rect x="72" y="108" width="12" height="12"/><rect x="84" y="108" width="12" height="12"/><rect x="108" y="108" width="12" height="12"/><rect x="120" y="108" width="12" height="12"/><rect x="144" y="108" width="12" height="12"/><rect x="156" y="108" width="12" height="12"/><rect x="204" y="108" width="12" height="12"/><rect x="228" y="108" width="12" height="12"/><rect x="240" y="108" width="12" height="12"/><rect x="252" y="108" width="12" height="12"/><rect x="276" y="108" width="12" height="12"/><rect x="288" y="108" width="12" height="12"/><rect x="12" y="120" width="12" height="12"/><rect x="36" y="120" width="12" height="12"/><rect x="60" y="120" width="12" height="12"/><rect x="72" y="120" width="12" height="12"/><rect x="144" y="120" width="12" height="12"/><rect x="156" y="120" width="12" height="12"/><rect x="168" y="120" width="12" height="12"/><rect x="180" y="120" width="12" height="12"/><rect x="228" y="120" width="12" height="12"/><rect x="240" y="120" width="12" height="12"/><rect x="252" y="120" width="12" height="12"/><rect x="264" y="120" width="12" height="12"/><rect x="72" y="132" width="12" height="12"/><rect x="84" y="132" width="12" height="12"/><rect x="96" y="132" width="12" height="12"/><rect x="120" y="132" width="12" height="12"/><rect x="132" y="132" width="12" height="12"/><rect x="144" y="132" width="12" height="12"/><rect x="156" y="132" width="12" height="12"/><rect x="168" y="132" width="12" height="12"/><rect x="240" y="132" width="12" height="12"/><rect x="264" y="132" width="12" height="12"/><rect x="12" y="144" width="12" height="12"/><rect x="24" y="144" width="12" height="12"/><rect x="48" y="144" width="12" height="12"/><rect x="60" y="144" width="12" height="12"/><rect x="96" y="144" width="12" height="12"/><rect x="120" y="144" width="12" height="12"/><rect x="168" y="144" width="12" height="12"/><rect x="216" y="144" width="12" height="12"/><rect x="240" y="144" width="12" height="12"/><rect x="252" y="144" width="12" height="12"/><rect x="264" y="144" width="12" height="12"/><rect x="276" y="144" width="12" height="12"/><rect x="288" y="144" width="12" height="12"/><rect x="12" y="156" width="12" height="12"/><rect x="24" y="156" width="12" height="12"/><rect x="48" y="156" width="12" height="12"/><rect x="84" y="156" width="12" height="12"/><rect x="96" y="156" width="12" height="12"/><rect x="144" y="156" width="12" height="12"/><rect x="156" y="156" width="12" height="12"/><rect x="168" y="156" width="12" height="12"/><rect x="180" y="156" width="12" height="12"/><rect x="204" y="156" width="12" height="12"/><rect x="216" y="156" width="12" height="12"/><rect x="264" y="156" width="12" height="12"/><rect x="288" y="156" width="12" height="12"/><rect x="48" y="168" width="12" height="12"/><rect x="60" y="168" width="12" height="12"/><rect x="96" y="168" width="12" height="12"/><rect x="120" y="168" width="12" height="12"/><rect x="156" y="168" width="12" height="12"/><rect x="168" y="168" width="12" height="12"/><rect x="192" y="168" width="12" height="12"/><rect x="252" y="168" width="12" height="12"/><rect x="24" y="180" width="12" height="12"/><rect x="36" y="180" width="12" height="12"/><rect x="48" y="180" width="12" height="12"/><rect x="60" y="180" width="12" height="12"/><rect x="84" y="180" width="12" height="12"/><rect x="96" y="180" width="12" height="12"/><rect x="144" y="180" width="12" height="12"/><rect x="192" y="180" width="12" height="12"/><rect x="252" y="180" width="12" height="12"/><rect x="12" y="192" width="12" height="12"/><rect x="24" y="192" width="12" height="12"/><rect x="72" y="192" width="12" height="12"/><rect x="120" y="192" width="12" height="12"/><rect x="144" y="192" width="12" height="12"/><rect x="156" y="192" width="12" height="12"/><rect x="204" y="192" width="12" height="12"/><rect x="228" y="192" width="12" height="12"/><rect x="240" y="192" width="12" height="12"/><rect x="252" y="192" width="12" height="12"/><rect x="276" y="192" width="12" height="12"/><rect x="24" y="204" width="12" height="12"/><rect x="60" y="204" width="12" height="12"/><rect x="84" y="204" width="12" height="12"/><rect x="120" y="204" width="12" height="12"/><rect x="156" y="204" width="12" height="12"/><rect x="192" y="204" width="12" height="12"/><rect x="216" y="204" width="12" height="12"/><rect x="228" y="204" width="12" height="12"/><rect x="240" y="204" width="12" height="12"/><rect x="264" y="204" width="12" height="12"/><rect x="156" y="216" width="12" height="12"/><rect x="168" y="216" width="12" height="12"/><rect x="180" y="216" width="12" height="12"/><rect x="228" y="216" width="12" height="12"/><rect x="300" y="216" width="12" height="12"/><rect x="12" y="228" width="12" height="12"/><rect x="24" y="228" width="12" height="12"/><rect x="36" y="228" width="12" height="12"/><rect x="48" y="228" width="12" height="12"/><rect x="60" y="228" width="12" height="12"/><rect x="72" y="228" width="12" height="12"/><rect x="84" y="228" width="12" height="12"/><rect x="120" y="228" width="12" height="12"/><rect x="132" y="228" width="12" height="12"/><rect x="156" y="228" width="12" height="12"/><rect x="228" y="228" width="12" height="12"/><rect x="240" y="228" width="12" height="12"/><rect x="252" y="228" width="12" height="12"/><rect x="264" y="228" width="12" height="12"/><rect x="288" y="228" width="12" height="12"/><rect x="12" y="240" width="12" height="12"/><rect x="84" y="240" width="12" height="12"/><rect x="144" y="240" width="12" height="12"/><rect x="180" y="240" width="12" height="12"/><rect x="204" y="240" width="12" height="12"/><rect x="228" y="240" width="12" height="12"/><rect x="240" y="240" width="12" height="12"/><rect x="264" y="240" width="12" height="12"/><rect x="12" y="252" width="12" height="12"/><rect x="36" y="252" width="12" height="12"/><rect x="48" y="252" width="12" height="12"/><rect x="60" y="252" width="12" height="12"/><rect x="84" y="252" width="12" height="12"/><rect x="132" y="252" width="12" height="12"/><rect x="144" y="252" width="12" height="12"/><rect x="156" y="252" width="12" height="12"/><rect x="180" y="252" width="12" height="12"/><rect x="192" y="252" width="12" height="12"/><rect x="204" y="252" width="12" height="12"/><rect x="240" y="252" width="12" height="12"/><rect x="264" y="252" width="12" height="12"/><rect x="276" y="252" width="12" height="12"/><rect x="12" y="264" width="12" height="12"/><rect x="36" y="264" width="12" height="12"/><rect x="48" y="264" width="12" height="12"/><rect x="60" y="264" width="12" height="12"/><rect x="84" y="264" width="12" height="12"/><rect x="108" y="264" width="12" height="12"/><rect x="144" y="264" width="12" height="12"/><rect x="168" y="264" width="12" height="12"/><rect x="216" y="264" width="12" height="12"/><rect x="276" y="264" width="12" height="12"/><rect x="300" y="264" width="12" height="12"/><rect x="12" y="276" width="12" height="12"/><rect x="36" y="276" width="12" height="12"/><rect x="48" y="276" width="12" height="12"/><rect x="60" y="276" width="12" height="12"/><rect x="84" y="276" width="12" height="12"/><rect x="108" y="276" width="12" height="12"/><rect x="120" y="276" width="12" height="12"/><rect x="144" y="276" width="12" height="12"/><rect x="168" y="276" width="12" height="12"/><rect x="204" y="276" width="12" height="12"/><rect x="228" y="276" width="12" height="12"/><rect x="252" y="276" width="12" height="12"/><rect x="12" y="288" width="12" height="12"/><rect x="84" y="288" width="12" height="12"/><rect x="144" y="288" width="12" height="12"/><rect x="156" y="288" width="12" height="12"/><rect x="168" y="288" width="12" height="12"/><rect x="192" y="288" width="12" height="12"/><rect x="204" y="288" width="12" height="12"/><rect x="228" y="288" width="12" height="12"/><rect x="240" y="288" width="12" height="12"/><rect x="300" y="288" width="12" height="12"/><rect x="12" y="300" width="12" height="12"/><rect x="24" y="300" width="12" height="12"/><rect x="36" y="300" width="12" height="12"/><rect x="48" y="300" width="12" height="12"/><rect x="60" y="300" width="12" height="12"/><rect x="72" y="300" width="12" height="12"/><rect x="84" y="300" width="12" height="12"/><rect x="120" y="300" width="12" height="12"/><rect x="132" y="300" width="12" height="12"/><rect x="252" y="300" width="12" height="12"/><rect x="300" y="300" width="12" height="12"/></g>
</svg>